<svg xmlns="http://www.w3.org/2000/svg" xmlns:xlink="http://www.w3.org/1999/xlink" width="794" zoomAndPan="magnify" viewBox="0 0 594.95996 842.24997" height="1123" preserveAspectRatio="xMidYMid meet" version="1.0"><defs><clipPath id="c47c207bef"><path d="M 0.246094 93 L 594.675781 93 L 594.675781 701 L 0.246094 701 Z M 0.246094 93 " clip-rule="nonzero"/></clipPath></defs><g clip-path="url(#c47c207bef)"><path fill="#ffffff" d="M 558.351562 296.875 L 550.53125 261.097656 L 546.425781 262.492188 C 544.230469 263.253906 542.085938 264.136719 539.984375 265.140625 C 537.886719 266.140625 535.851562 267.253906 533.878906 268.480469 C 531.902344 269.707031 530 271.035156 528.171875 272.472656 C 526.34375 273.910156 524.601562 275.441406 522.945312 277.070312 C 521.285156 278.699219 519.722656 280.414062 518.25 282.214844 C 516.78125 284.015625 515.417969 285.890625 514.15625 287.84375 C 512.894531 289.796875 511.742188 291.8125 510.703125 293.890625 C 509.664062 295.972656 508.742188 298.101562 507.9375 300.28125 C 506.273438 305.488281 505.363281 310.820312 505.203125 316.285156 C 505.046875 321.746094 505.648438 327.125 507.007812 332.417969 L 502.519531 337.917969 C 492.777344 329.855469 482.300781 322.902344 471.089844 317.058594 C 459.878906 311.210938 448.183594 306.597656 435.996094 303.222656 L 435.996094 219.792969 C 435.996094 192.453125 422.832031 179.136719 395.652344 179.136719 L 328.820312 179.136719 C 323.011719 155.128906 312.25 146.996094 287.082031 146.996094 L 284.523438 146.921875 C 282.429688 146.816406 280.339844 146.867188 278.253906 147.074219 C 277.261719 147.289062 276.308594 147.1875 275.386719 146.765625 C 275.078125 146.535156 274.613281 145.757812 274.378906 143.4375 C 274.207031 141.8125 273.960938 140.199219 273.644531 138.59375 C 273.328125 136.992188 272.941406 135.40625 272.488281 133.835938 C 272.035156 132.265625 271.511719 130.71875 270.925781 129.195312 C 270.335938 127.671875 269.679688 126.175781 268.960938 124.707031 C 268.242188 123.242188 267.460938 121.808594 266.617188 120.410156 C 265.773438 119.011719 264.871094 117.648438 263.910156 116.328125 C 262.945312 115.007812 261.929688 113.734375 260.855469 112.5 C 259.78125 111.269531 258.65625 110.085938 257.480469 108.953125 C 256.304688 107.820312 255.078125 106.738281 253.808594 105.710938 C 252.539062 104.683594 251.226562 103.714844 249.871094 102.800781 C 248.515625 101.886719 247.125 101.035156 245.695312 100.246094 C 244.265625 99.453125 242.804688 98.726562 241.3125 98.058594 C 239.820312 97.394531 238.300781 96.796875 236.753906 96.265625 C 235.210938 95.734375 233.644531 95.269531 232.058594 94.875 C 230.476562 94.476562 228.875 94.152344 227.261719 93.894531 C 225.648438 93.636719 224.027344 93.453125 222.398438 93.335938 C 220.765625 93.222656 219.136719 93.175781 217.5 93.203125 C 215.867188 93.230469 214.238281 93.328125 212.613281 93.496094 C 210.988281 93.664062 209.375 93.90625 207.769531 94.214844 C 206.164062 94.523438 204.578125 94.902344 203.003906 95.347656 C 201.433594 95.796875 199.886719 96.3125 198.359375 96.894531 C 196.832031 97.476562 195.332031 98.125 193.863281 98.835938 C 192.394531 99.550781 190.957031 100.324219 189.554688 101.164062 C 188.152344 102 186.789062 102.898438 185.464844 103.855469 C 184.140625 104.8125 182.859375 105.824219 181.621094 106.894531 C 180.386719 107.960938 179.199219 109.082031 178.058594 110.253906 C 176.921875 111.425781 175.835938 112.644531 174.804688 113.910156 C 173.769531 115.175781 172.796875 116.484375 171.875 117.835938 C 170.957031 119.1875 170.101562 120.578125 169.300781 122.003906 C 168.503906 123.429688 167.769531 124.886719 167.101562 126.375 C 166.429688 127.867188 165.824219 129.382812 165.285156 130.925781 C 164.746094 132.46875 164.277344 134.03125 163.875 135.613281 C 163.5 137.148438 163.21875 138.695312 163.023438 140.261719 C 162.636719 142.738281 162.171875 146.070312 161.164062 146.765625 C 158.625 147.648438 156.046875 147.800781 153.421875 147.230469 C 151.910156 146.921875 150.386719 146.847656 148.851562 146.996094 C 124.84375 146.996094 113.304688 156.058594 108.351562 179.136719 L 40.359375 179.136719 C 14.648438 179.167969 1.019531 192.84375 1.019531 218.785156 L 1.019531 661.613281 C 0.902344 662.902344 0.855469 664.191406 0.878906 665.484375 C 0.902344 666.773438 0.996094 668.0625 1.160156 669.34375 C 1.324219 670.625 1.558594 671.894531 1.863281 673.148438 C 2.167969 674.40625 2.539062 675.640625 2.980469 676.855469 C 3.417969 678.070312 3.921875 679.257812 4.492188 680.417969 C 5.0625 681.578125 5.695312 682.703125 6.386719 683.792969 C 7.078125 684.882812 7.832031 685.933594 8.640625 686.941406 C 9.445312 687.949219 10.308594 688.910156 11.222656 689.824219 C 12.136719 690.734375 13.097656 691.597656 14.105469 692.40625 C 15.113281 693.214844 16.160156 693.964844 17.25 694.65625 C 18.34375 695.351562 19.46875 695.980469 20.625 696.550781 C 21.785156 697.121094 22.972656 697.625 24.1875 698.066406 C 25.402344 698.503906 26.640625 698.875 27.894531 699.179688 C 29.152344 699.484375 30.417969 699.71875 31.703125 699.882812 C 32.984375 700.046875 34.269531 700.144531 35.5625 700.167969 C 36.851562 700.191406 38.140625 700.144531 39.429688 700.023438 L 396.503906 700.023438 C 422.367188 700.023438 436.074219 686.394531 436.074219 660.609375 L 436.074219 626.84375 C 440.175781 625.722656 444.226562 624.445312 448.234375 623.015625 C 452.238281 621.582031 456.179688 620.003906 460.0625 618.269531 C 463.949219 616.539062 467.757812 614.664062 471.5 612.640625 C 475.242188 610.621094 478.898438 608.460938 482.476562 606.160156 C 486.050781 603.859375 489.535156 601.425781 492.925781 598.859375 C 496.316406 596.292969 499.605469 593.605469 502.789062 590.789062 C 505.976562 587.972656 509.050781 585.039062 512.011719 581.988281 C 514.976562 578.9375 517.816406 575.78125 520.539062 572.511719 C 523.261719 569.246094 525.855469 565.882812 528.320312 562.417969 C 530.785156 558.953125 533.117188 555.398438 535.3125 551.757812 C 537.507812 548.117188 539.558594 544.398438 541.472656 540.597656 C 543.382812 536.800781 545.148438 532.9375 546.765625 529.003906 C 548.382812 525.070312 549.847656 521.082031 551.160156 517.039062 C 552.476562 512.996094 553.632812 508.90625 554.632812 504.773438 C 555.636719 500.640625 556.480469 496.476562 557.164062 492.28125 C 557.851562 488.085938 558.375 483.867188 558.738281 479.632812 C 559.21875 474.070312 559.429688 468.5 559.371094 462.921875 C 559.308594 457.339844 558.976562 451.777344 558.371094 446.230469 C 557.769531 440.679688 556.894531 435.175781 555.757812 429.710938 C 554.617188 424.25 553.210938 418.855469 551.546875 413.527344 C 549.878906 408.203125 547.960938 402.96875 545.78125 397.832031 C 543.605469 392.691406 541.1875 387.671875 538.519531 382.765625 C 535.855469 377.863281 532.957031 373.101562 529.828125 368.480469 C 526.699219 363.859375 523.351562 359.402344 519.785156 355.109375 L 524.433594 351.238281 C 527.601562 351.847656 530.796875 352.203125 534.019531 352.300781 C 537.242188 352.394531 540.457031 352.234375 543.652344 351.8125 C 546.851562 351.390625 549.996094 350.71875 553.082031 349.789062 C 556.171875 348.859375 559.167969 347.691406 562.070312 346.28125 C 563.980469 345.285156 565.835938 344.195312 567.632812 343.007812 C 569.429688 341.816406 571.160156 340.539062 572.824219 339.171875 C 574.488281 337.804688 576.078125 336.351562 577.59375 334.820312 C 579.105469 333.285156 580.535156 331.679688 581.882812 329.996094 C 583.226562 328.3125 584.484375 326.566406 585.648438 324.753906 C 586.8125 322.941406 587.878906 321.070312 588.851562 319.148438 C 589.820312 317.226562 590.6875 315.253906 591.453125 313.242188 C 592.21875 311.226562 592.878906 309.179688 593.433594 307.097656 L 594.4375 302.992188 Z M 135.453125 206.9375 C 135.375 199.269531 135.375 191.527344 135.453125 183.859375 C 135.53125 176.65625 138.164062 174.101562 145.289062 173.945312 C 150.398438 173.792969 155.589844 173.871094 160.699219 173.871094 L 173.167969 173.871094 C 184.320312 173.714844 188.734375 169.222656 189.042969 157.996094 L 189.121094 154.742188 C 189.054688 151.867188 189.183594 149.003906 189.507812 146.144531 C 189.609375 145.273438 189.75 144.40625 189.929688 143.542969 C 190.113281 142.683594 190.332031 141.832031 190.589844 140.988281 C 190.847656 140.148438 191.140625 139.320312 191.472656 138.503906 C 191.804688 137.691406 192.175781 136.890625 192.578125 136.109375 C 192.984375 135.328125 193.421875 134.566406 193.894531 133.824219 C 194.367188 133.082031 194.875 132.363281 195.410156 131.667969 C 195.949219 130.972656 196.519531 130.300781 197.117188 129.65625 C 197.714844 129.011719 198.339844 128.394531 198.996094 127.804688 C 199.648438 127.21875 200.328125 126.660156 201.035156 126.132812 C 201.738281 125.605469 202.464844 125.113281 203.214844 124.652344 C 203.964844 124.1875 204.734375 123.761719 205.519531 123.371094 C 206.308594 122.980469 207.113281 122.625 207.933594 122.304688 C 208.753906 121.984375 209.585938 121.703125 210.429688 121.457031 C 211.277344 121.214844 212.132812 121.007812 212.996094 120.84375 C 213.859375 120.675781 214.730469 120.546875 215.605469 120.457031 C 216.480469 120.371094 217.355469 120.320312 218.238281 120.3125 L 218.46875 120.3125 C 219.359375 120.3125 220.246094 120.351562 221.132812 120.433594 C 222.019531 120.515625 222.898438 120.636719 223.773438 120.796875 C 224.648438 120.957031 225.515625 121.15625 226.371094 121.398438 C 227.226562 121.636719 228.070312 121.914062 228.902344 122.230469 C 229.734375 122.546875 230.546875 122.902344 231.347656 123.292969 C 232.148438 123.683594 232.925781 124.109375 233.6875 124.570312 C 234.445312 125.03125 235.183594 125.527344 235.898438 126.058594 C 236.613281 126.585938 237.304688 127.148438 237.96875 127.738281 C 238.632812 128.332031 239.269531 128.949219 239.875 129.601562 C 240.484375 130.25 241.058594 130.925781 241.605469 131.628906 C 242.152344 132.328125 242.664062 133.054688 243.144531 133.804688 C 243.625 134.554688 244.070312 135.324219 244.480469 136.113281 C 244.890625 136.902344 245.265625 137.707031 245.601562 138.53125 C 245.9375 139.355469 246.234375 140.191406 246.496094 141.042969 C 246.757812 141.890625 246.976562 142.753906 247.160156 143.625 C 247.34375 144.492188 247.484375 145.371094 247.585938 146.253906 C 247.894531 148.964844 247.894531 151.675781 247.972656 154.386719 C 247.972656 156.167969 247.972656 157.871094 248.050781 159.574219 C 248.007812 160.054688 247.992188 160.535156 248.003906 161.019531 C 248.015625 161.5 248.050781 161.980469 248.117188 162.457031 C 248.179688 162.933594 248.269531 163.410156 248.386719 163.875 C 248.5 164.34375 248.640625 164.804688 248.808594 165.257812 C 248.972656 165.710938 249.164062 166.152344 249.378906 166.585938 C 249.59375 167.015625 249.832031 167.433594 250.089844 167.839844 C 250.351562 168.246094 250.632812 168.636719 250.9375 169.011719 C 251.242188 169.382812 251.566406 169.742188 251.90625 170.082031 C 252.25 170.417969 252.609375 170.738281 252.988281 171.039062 C 253.367188 171.339844 253.757812 171.617188 254.167969 171.871094 C 254.574219 172.128906 254.996094 172.363281 255.429688 172.570312 C 255.863281 172.78125 256.308594 172.96875 256.765625 173.128906 C 257.21875 173.289062 257.679688 173.425781 258.148438 173.535156 C 258.617188 173.644531 259.09375 173.730469 259.570312 173.789062 C 260.050781 173.847656 260.53125 173.878906 261.011719 173.886719 C 261.496094 173.890625 261.976562 173.871094 262.453125 173.824219 C 267.796875 173.976562 273.0625 173.902344 278.332031 173.902344 C 282.589844 173.902344 286.847656 173.902344 291.109375 173.976562 C 299.085938 174.054688 301.5625 176.535156 301.640625 184.664062 C 301.640625 193.726562 301.71875 202.785156 301.640625 211.847656 C 301.5625 219.433594 299.007812 222.066406 291.417969 222.066406 C 273.917969 222.144531 256.414062 222.066406 238.835938 222.066406 L 146.914062 222.066406 C 137.621094 222.066406 135.453125 219.820312 135.453125 210.296875 Z M 408.972656 661.273438 C 408.972656 670.722656 406.800781 672.96875 397.433594 672.96875 L 39.660156 672.96875 C 38.023438 673.175781 36.398438 673.082031 34.796875 672.679688 C 33.191406 672.28125 31.714844 671.601562 30.367188 670.644531 C 29.414062 669.28125 28.734375 667.792969 28.335938 666.175781 C 27.933594 664.558594 27.839844 662.925781 28.046875 661.273438 L 28.121094 544.183594 C 28.199219 487.808594 28.226562 431.433594 28.199219 375.058594 C 28.199219 343.382812 28.175781 311.660156 28.121094 279.882812 L 28.121094 218.398438 C 27.859375 216.648438 27.917969 214.914062 28.304688 213.191406 C 28.695312 211.46875 29.382812 209.871094 30.367188 208.40625 C 31.871094 207.441406 33.496094 206.765625 35.242188 206.378906 C 36.984375 205.992188 38.742188 205.921875 40.511719 206.160156 L 108.351562 206.160156 L 108.351562 207.167969 C 108.351562 209.722656 108.351562 212.125 108.429688 214.523438 C 108.425781 215.648438 108.476562 216.769531 108.585938 217.890625 C 108.695312 219.011719 108.855469 220.121094 109.074219 221.222656 C 109.289062 222.328125 109.558594 223.417969 109.882812 224.496094 C 110.207031 225.570312 110.582031 226.628906 111.011719 227.671875 C 111.4375 228.710938 111.914062 229.726562 112.441406 230.71875 C 112.96875 231.714844 113.542969 232.679688 114.164062 233.613281 C 114.789062 234.550781 115.453125 235.457031 116.164062 236.328125 C 116.875 237.199219 117.625 238.035156 118.417969 238.832031 C 119.210938 239.628906 120.039062 240.386719 120.90625 241.101562 C 121.773438 241.820312 122.671875 242.492188 123.605469 243.117188 C 124.539062 243.746094 125.5 244.328125 126.488281 244.863281 C 127.480469 245.394531 128.492188 245.878906 129.527344 246.316406 C 130.566406 246.75 131.621094 247.132812 132.695312 247.464844 C 133.769531 247.792969 134.859375 248.070312 135.960938 248.296875 C 137.0625 248.519531 138.171875 248.691406 139.292969 248.804688 C 140.410156 248.921875 141.53125 248.980469 142.65625 248.984375 C 191.832031 249.21875 242.863281 249.21875 294.359375 248.984375 C 295.484375 248.984375 296.609375 248.925781 297.730469 248.8125 C 298.847656 248.695312 299.960938 248.527344 301.066406 248.304688 C 302.167969 248.082031 303.257812 247.808594 304.335938 247.476562 C 305.410156 247.148438 306.46875 246.765625 307.507812 246.332031 C 308.546875 245.898438 309.5625 245.414062 310.554688 244.882812 C 311.546875 244.347656 312.507812 243.769531 313.445312 243.140625 C 314.378906 242.511719 315.28125 241.839844 316.148438 241.125 C 317.015625 240.410156 317.847656 239.652344 318.644531 238.855469 C 319.4375 238.054688 320.191406 237.222656 320.902344 236.347656 C 321.617188 235.476562 322.285156 234.574219 322.90625 233.636719 C 323.53125 232.699219 324.105469 231.730469 324.636719 230.738281 C 325.164062 229.742188 325.644531 228.726562 326.070312 227.683594 C 326.5 226.644531 326.878906 225.585938 327.203125 224.507812 C 327.527344 223.429688 327.800781 222.335938 328.015625 221.234375 C 328.234375 220.128906 328.398438 219.015625 328.507812 217.894531 C 328.613281 216.773438 328.667969 215.652344 328.664062 214.523438 C 328.742188 212.355469 328.664062 210.109375 328.664062 207.476562 L 328.664062 206.160156 L 395.03125 206.160156 C 407.578125 206.160156 408.972656 207.554688 408.972656 219.792969 L 408.972656 298.003906 C 403.132812 297.34375 397.277344 297 391.402344 296.964844 C 385.527344 296.929688 379.664062 297.210938 373.820312 297.800781 C 367.972656 298.390625 362.175781 299.292969 356.429688 300.503906 C 350.679688 301.714844 345.011719 303.230469 339.421875 305.042969 C 333.835938 306.859375 328.359375 308.96875 323 311.371094 C 317.636719 313.769531 312.417969 316.449219 307.339844 319.410156 C 302.265625 322.367188 297.359375 325.585938 292.628906 329.070312 C 287.894531 332.550781 283.363281 336.273438 279.027344 340.242188 L 211.964844 340.242188 C 210.101562 340.203125 208.242188 340.28125 206.390625 340.472656 C 205.582031 340.554688 204.792969 340.707031 204.015625 340.933594 C 203.238281 341.160156 202.488281 341.457031 201.761719 341.820312 C 201.039062 342.183594 200.355469 342.609375 199.710938 343.097656 C 199.0625 343.585938 198.46875 344.128906 197.921875 344.726562 C 197.375 345.324219 196.886719 345.964844 196.457031 346.652344 C 196.03125 347.339844 195.667969 348.058594 195.367188 348.8125 C 195.070312 349.5625 194.84375 350.335938 194.6875 351.132812 C 194.53125 351.925781 194.449219 352.730469 194.441406 353.539062 C 194.429688 354.347656 194.496094 355.152344 194.632812 355.949219 C 194.769531 356.746094 194.976562 357.527344 195.257812 358.285156 C 195.539062 359.046875 195.882812 359.773438 196.296875 360.46875 C 196.710938 361.167969 197.183594 361.820312 197.714844 362.429688 C 198.246094 363.039062 198.828125 363.597656 199.464844 364.101562 C 200.097656 364.601562 200.773438 365.046875 201.488281 365.425781 C 202.203125 365.804688 202.945312 366.117188 203.714844 366.363281 C 204.488281 366.605469 205.277344 366.78125 206.078125 366.878906 C 207.59375 367.097656 209.117188 367.203125 210.648438 367.191406 L 255.253906 367.191406 C 251.054688 373.097656 247.257812 379.25 243.863281 385.65625 C 240.46875 392.058594 237.507812 398.65625 234.976562 405.449219 C 232.445312 412.238281 230.371094 419.167969 228.75 426.230469 C 227.125 433.296875 225.972656 440.433594 225.285156 447.648438 L 211.808594 447.648438 C 209.921875 447.609375 208.035156 447.683594 206.15625 447.882812 C 205.351562 447.972656 204.558594 448.136719 203.78125 448.375 C 203.003906 448.613281 202.257812 448.917969 201.539062 449.292969 C 200.816406 449.667969 200.136719 450.105469 199.496094 450.605469 C 198.855469 451.101562 198.265625 451.65625 197.726562 452.265625 C 197.191406 452.871094 196.710938 453.523438 196.292969 454.21875 C 195.871094 454.914062 195.519531 455.640625 195.234375 456.398438 C 194.949219 457.160156 194.734375 457.9375 194.589844 458.738281 C 194.449219 459.539062 194.378906 460.34375 194.382812 461.15625 C 194.386719 461.964844 194.464844 462.769531 194.617188 463.570312 C 194.769531 464.367188 194.996094 465.144531 195.289062 465.898438 C 195.585938 466.65625 195.945312 467.378906 196.371094 468.070312 C 196.800781 468.757812 197.285156 469.40625 197.832031 470.003906 C 198.378906 470.605469 198.972656 471.152344 199.621094 471.644531 C 200.265625 472.136719 200.953125 472.566406 201.675781 472.929688 C 202.402344 473.296875 203.152344 473.59375 203.929688 473.824219 C 204.710938 474.050781 205.503906 474.207031 206.3125 474.289062 C 207.390625 474.441406 208.472656 474.519531 209.5625 474.519531 L 224.742188 474.519531 C 225.144531 481.640625 225.996094 488.710938 227.296875 495.722656 C 228.59375 502.734375 230.332031 509.636719 232.507812 516.429688 C 234.683594 523.222656 237.277344 529.851562 240.292969 536.316406 C 243.308594 542.78125 246.722656 549.027344 250.53125 555.058594 L 211.035156 555.058594 C 210.648438 555.058594 210.183594 554.980469 209.71875 554.980469 C 208.640625 554.75 207.558594 554.746094 206.480469 554.976562 C 205.402344 555.207031 204.414062 555.644531 203.523438 556.296875 L 202.4375 557.304688 C 200.699219 558.558594 199.179688 560.035156 197.875 561.738281 C 196.570312 563.4375 195.535156 565.289062 194.773438 567.292969 C 194.378906 568.652344 194.277344 570.03125 194.464844 571.433594 C 194.65625 572.835938 195.117188 574.140625 195.855469 575.347656 C 196.824219 576.863281 198.042969 578.128906 199.523438 579.148438 C 201 580.171875 202.617188 580.863281 204.375 581.234375 C 206.828125 581.742188 209.304688 581.949219 211.808594 581.851562 L 271.824219 581.851562 C 275.707031 585.871094 279.78125 589.683594 284.046875 593.292969 C 288.308594 596.90625 292.746094 600.292969 297.347656 603.457031 C 301.953125 606.625 306.703125 609.550781 311.601562 612.242188 C 316.5 614.929688 321.519531 617.367188 326.660156 619.554688 C 331.800781 621.738281 337.039062 623.664062 342.375 625.324219 C 347.710938 626.984375 353.113281 628.375 358.589844 629.496094 C 364.0625 630.613281 369.578125 631.457031 375.136719 632.023438 C 380.695312 632.589844 386.269531 632.878906 391.855469 632.886719 C 397.578125 632.882812 403.28125 632.574219 408.972656 631.957031 Z M 499.109375 559.394531 C 494.894531 564.191406 490.382812 568.683594 485.574219 572.882812 C 480.761719 577.078125 475.695312 580.9375 470.371094 584.464844 C 465.050781 587.988281 459.519531 591.144531 453.777344 593.9375 C 448.035156 596.726562 442.132812 599.125 436.074219 601.132812 C 427.25 604.09375 418.214844 606.105469 408.972656 607.175781 C 405.453125 607.707031 401.917969 608.042969 398.363281 608.179688 C 394.417969 608.390625 390.476562 608.433594 386.53125 608.308594 C 382.585938 608.179688 378.652344 607.886719 374.730469 607.425781 C 370.808594 606.964844 366.917969 606.335938 363.050781 605.542969 C 359.183594 604.75 355.355469 603.792969 351.570312 602.675781 C 347.785156 601.554688 344.054688 600.277344 340.375 598.839844 C 336.699219 597.402344 333.089844 595.8125 329.550781 594.066406 C 326.007812 592.324219 322.546875 590.429688 319.167969 588.390625 C 315.789062 586.351562 312.5 584.171875 309.304688 581.851562 C 304.765625 578.621094 300.457031 575.113281 296.375 571.320312 C 290.90625 566.257812 285.820312 560.835938 281.117188 555.058594 C 276.480469 549.355469 272.296875 543.335938 268.574219 537 C 264.855469 530.660156 261.632812 524.074219 258.914062 517.246094 C 256.195312 510.417969 254.011719 503.421875 252.359375 496.257812 C 250.707031 489.097656 249.605469 481.851562 249.058594 474.519531 C 248.824219 472.273438 248.75 469.953125 248.671875 467.707031 C 248.511719 461 248.824219 454.3125 249.601562 447.648438 C 250.46875 440.152344 251.933594 432.769531 253.992188 425.507812 C 256.050781 418.246094 258.679688 411.199219 261.878906 404.359375 C 265.078125 397.523438 268.804688 390.988281 273.054688 384.75 C 277.308594 378.515625 282.035156 372.660156 287.234375 367.191406 C 287.890625 366.375 288.585938 365.601562 289.328125 364.867188 C 298.757812 355.175781 309.34375 346.964844 321.078125 340.242188 C 326.4375 337.160156 331.976562 334.441406 337.691406 332.082031 C 343.410156 329.726562 349.253906 327.75 355.230469 326.15625 C 361.203125 324.558594 367.253906 323.359375 373.386719 322.554688 C 379.515625 321.75 385.671875 321.347656 391.855469 321.34375 C 397.585938 321.316406 403.289062 321.679688 408.972656 322.429688 C 415.925781 323.257812 422.78125 324.597656 429.535156 326.453125 C 436.289062 328.304688 442.867188 330.648438 449.273438 333.484375 C 455.675781 336.316406 461.835938 339.613281 467.75 343.367188 C 473.660156 347.121094 479.261719 351.292969 484.550781 355.882812 L 458.222656 381.207031 C 451.296875 375.941406 443.886719 371.476562 435.996094 367.808594 C 427.382812 363.746094 418.375 360.960938 408.972656 359.445312 C 399.785156 357.949219 390.570312 357.742188 381.324219 358.824219 C 376.734375 359.253906 372.191406 359.976562 367.695312 360.996094 C 361.222656 362.414062 354.949219 364.453125 348.878906 367.113281 C 344.523438 369.019531 340.320312 371.214844 336.269531 373.699219 C 332.21875 376.1875 328.359375 378.9375 324.6875 381.957031 C 321.011719 384.972656 317.566406 388.230469 314.339844 391.722656 C 311.117188 395.214844 308.148438 398.910156 305.433594 402.8125 C 300.632812 409.460938 296.664062 416.570312 293.523438 424.144531 C 290.386719 431.722656 288.160156 439.554688 286.847656 447.648438 C 285.335938 456.566406 285.023438 465.523438 285.917969 474.519531 C 286.25 477.773438 286.730469 481.007812 287.355469 484.21875 C 287.980469 487.429688 288.75 490.605469 289.664062 493.746094 C 290.578125 496.886719 291.628906 499.980469 292.824219 503.027344 C 294.019531 506.070312 295.351562 509.058594 296.816406 511.980469 C 298.28125 514.90625 299.875 517.757812 301.601562 520.539062 C 303.324219 523.316406 305.171875 526.011719 307.140625 528.625 C 309.109375 531.238281 311.195312 533.753906 313.394531 536.175781 C 315.589844 538.601562 317.894531 540.917969 320.300781 543.132812 C 325.054688 547.617188 330.21875 551.566406 335.789062 554.980469 C 342.757812 559.398438 350.152344 562.933594 357.96875 565.578125 C 365.785156 568.222656 373.800781 569.902344 382.023438 570.625 C 391.042969 571.542969 400.027344 571.257812 408.972656 569.773438 C 413.484375 569.070312 417.929688 568.074219 422.308594 566.785156 C 426.691406 565.492188 430.964844 563.921875 435.136719 562.0625 C 439.308594 560.207031 443.339844 558.082031 447.230469 555.691406 C 451.121094 553.300781 454.835938 550.664062 458.378906 547.777344 C 459.714844 546.699219 461.023438 545.585938 462.304688 544.441406 C 463.585938 543.300781 464.84375 542.125 466.070312 540.921875 C 467.292969 539.71875 468.492188 538.488281 469.660156 537.226562 C 470.824219 535.964844 471.960938 534.675781 473.066406 533.363281 C 474.171875 532.046875 475.246094 530.707031 476.289062 529.339844 C 477.328125 527.972656 478.335938 526.582031 479.3125 525.164062 C 480.285156 523.75 481.226562 522.3125 482.128906 520.851562 C 483.035156 519.390625 483.90625 517.910156 484.738281 516.410156 C 485.574219 514.90625 486.371094 513.386719 487.132812 511.84375 C 487.894531 510.304688 488.617188 508.746094 489.304688 507.171875 C 489.992188 505.597656 490.640625 504.007812 491.25 502.402344 C 491.863281 500.792969 492.433594 499.175781 492.964844 497.542969 C 493.5 495.90625 493.992188 494.261719 494.445312 492.605469 C 494.898438 490.949219 495.3125 489.28125 495.6875 487.605469 C 496.058594 485.925781 496.394531 484.242188 496.6875 482.546875 C 496.980469 480.855469 497.230469 479.15625 497.441406 477.453125 C 497.652344 475.746094 497.824219 474.035156 497.953125 472.324219 C 498.082031 470.609375 498.171875 468.894531 498.21875 467.175781 C 498.265625 465.460938 498.269531 463.742188 498.234375 462.023438 C 498.199219 460.304688 498.125 458.589844 498.007812 456.875 C 497.886719 455.160156 497.730469 453.453125 497.53125 451.746094 C 497.332031 450.039062 497.089844 448.335938 496.808594 446.644531 C 496.527344 444.949219 496.207031 443.261719 495.84375 441.582031 C 495.480469 439.902344 495.078125 438.230469 494.636719 436.570312 C 494.195312 434.910156 493.710938 433.261719 493.191406 431.625 C 492.667969 429.988281 492.109375 428.363281 491.507812 426.753906 C 490.910156 425.144531 490.273438 423.546875 489.597656 421.96875 C 488.921875 420.390625 488.207031 418.828125 487.457031 417.28125 C 486.707031 415.734375 485.917969 414.210938 485.09375 412.703125 C 484.269531 411.195312 483.410156 409.707031 482.515625 408.242188 C 481.621094 406.773438 480.691406 405.328125 479.726562 403.90625 C 478.761719 402.484375 477.761719 401.089844 476.730469 399.714844 L 502.128906 374.082031 C 503.484375 375.695312 504.800781 377.335938 506.078125 379.007812 C 507.359375 380.679688 508.601562 382.382812 509.804688 384.109375 C 511.007812 385.835938 512.171875 387.589844 513.296875 389.367188 C 514.421875 391.148438 515.507812 392.953125 516.554688 394.777344 C 517.597656 396.605469 518.601562 398.457031 519.5625 400.328125 C 520.527344 402.203125 521.445312 404.09375 522.324219 406.007812 C 523.203125 407.921875 524.035156 409.855469 524.828125 411.804688 C 525.621094 413.757812 526.367188 415.722656 527.070312 417.707031 C 527.773438 419.691406 528.433594 421.691406 529.046875 423.707031 C 529.664062 425.71875 530.230469 427.746094 530.753906 429.785156 C 531.28125 431.824219 531.757812 433.875 532.191406 435.933594 C 532.621094 437.996094 533.007812 440.0625 533.347656 442.140625 C 533.6875 444.21875 533.984375 446.304688 534.230469 448.394531 C 534.476562 450.484375 534.675781 452.582031 534.832031 454.679688 C 534.984375 456.78125 535.089844 458.882812 535.148438 460.988281 C 535.210938 463.089844 535.222656 465.195312 535.1875 467.300781 C 535.152344 469.40625 535.074219 471.511719 534.945312 473.613281 C 534.816406 475.714844 534.640625 477.808594 534.417969 479.902344 C 534.199219 481.996094 533.929688 484.085938 533.613281 486.167969 C 533.300781 488.25 532.9375 490.324219 532.53125 492.386719 C 532.121094 494.453125 531.667969 496.507812 531.167969 498.554688 C 530.671875 500.597656 530.125 502.632812 529.535156 504.652344 C 528.945312 506.675781 528.308594 508.679688 527.628906 510.675781 C 526.949219 512.667969 526.226562 514.644531 525.460938 516.601562 C 524.691406 518.5625 523.878906 520.507812 523.023438 522.429688 C 522.171875 524.355469 521.273438 526.257812 520.332031 528.140625 C 519.394531 530.027344 518.414062 531.886719 517.390625 533.730469 C 516.367188 535.570312 515.304688 537.386719 514.199219 539.179688 C 513.097656 540.972656 511.953125 542.738281 510.769531 544.480469 C 509.585938 546.222656 508.367188 547.9375 507.105469 549.625 C 505.847656 551.3125 504.550781 552.96875 503.21875 554.597656 C 501.882812 556.226562 500.515625 557.828125 499.109375 559.394531 Z M 339.273438 527.179688 C 335.359375 523.875 331.789062 520.230469 328.5625 516.25 C 325.335938 512.269531 322.511719 508.023438 320.085938 503.507812 C 317.660156 498.996094 315.675781 494.296875 314.136719 489.40625 C 312.597656 484.519531 311.53125 479.53125 310.933594 474.445312 C 310.777344 473.050781 310.621094 471.65625 310.546875 470.183594 C 310.015625 462.589844 310.582031 455.078125 312.25 447.648438 C 313.761719 440.519531 316.179688 433.707031 319.503906 427.21875 C 322.828125 420.730469 326.9375 414.789062 331.839844 409.394531 C 333.640625 407.425781 335.53125 405.554688 337.511719 403.773438 C 339.496094 401.992188 341.5625 400.316406 343.710938 398.742188 C 345.859375 397.164062 348.082031 395.699219 350.375 394.34375 C 352.671875 392.984375 355.027344 391.746094 357.441406 390.621094 C 359.859375 389.5 362.324219 388.496094 364.839844 387.617188 C 367.355469 386.734375 369.90625 385.980469 372.496094 385.355469 C 375.085938 384.726562 377.703125 384.226562 380.339844 383.859375 C 382.980469 383.488281 385.632812 383.25 388.292969 383.140625 C 389.609375 383.066406 390.925781 383.066406 392.320312 383.066406 C 397.9375 383.023438 403.488281 383.617188 408.972656 384.847656 C 413.8125 385.808594 418.511719 387.246094 423.0625 389.164062 C 427.613281 391.082031 431.925781 393.4375 435.996094 396.230469 C 437.699219 397.390625 439.328125 398.628906 440.953125 399.945312 L 435.996094 404.902344 L 417.722656 423.179688 C 414.914062 421.6875 411.996094 420.445312 408.972656 419.460938 C 406.089844 418.398438 403.140625 417.601562 400.117188 417.074219 C 397.09375 416.546875 394.046875 416.292969 390.976562 416.320312 C 387.90625 416.347656 384.863281 416.652344 381.851562 417.230469 C 378.835938 417.808594 375.898438 418.65625 373.039062 419.769531 C 371.757812 420.316406 370.503906 420.917969 369.273438 421.570312 C 368.042969 422.226562 366.84375 422.929688 365.675781 423.6875 C 364.503906 424.445312 363.371094 425.25 362.269531 426.105469 C 361.171875 426.957031 360.109375 427.859375 359.085938 428.804688 C 358.0625 429.75 357.082031 430.734375 356.144531 431.765625 C 355.207031 432.792969 354.3125 433.863281 353.46875 434.96875 C 352.621094 436.074219 351.824219 437.214844 351.074219 438.390625 C 350.328125 439.5625 349.628906 440.769531 348.984375 442.003906 C 348.339844 443.238281 347.75 444.496094 347.210938 445.78125 C 346.675781 447.066406 346.195312 448.371094 345.769531 449.699219 C 345.34375 451.027344 344.976562 452.367188 344.667969 453.726562 C 344.355469 455.082031 344.105469 456.453125 343.914062 457.832031 C 343.722656 459.210938 343.589844 460.597656 343.515625 461.988281 C 343.441406 463.378906 343.429688 464.769531 343.472656 466.160156 C 343.519531 467.554688 343.625 468.941406 343.792969 470.324219 C 343.957031 471.707031 344.179688 473.078125 344.464844 474.445312 C 345.25 478.472656 346.542969 482.328125 348.34375 486.019531 C 350.140625 489.707031 352.382812 493.101562 355.074219 496.203125 C 356.6875 498.078125 358.433594 499.820312 360.3125 501.429688 C 362.1875 503.039062 364.175781 504.496094 366.277344 505.808594 C 368.375 507.117188 370.558594 508.257812 372.832031 509.238281 C 375.101562 510.214844 377.433594 511.019531 379.828125 511.644531 C 382.21875 512.269531 384.644531 512.710938 387.105469 512.96875 C 389.566406 513.230469 392.03125 513.300781 394.5 513.1875 C 396.972656 513.074219 399.421875 512.773438 401.84375 512.289062 C 404.269531 511.804688 406.644531 511.140625 408.972656 510.296875 C 411.59375 509.363281 414.097656 508.175781 416.484375 506.734375 C 418.917969 505.089844 421.179688 503.234375 423.269531 501.167969 C 425.355469 499.101562 427.234375 496.859375 428.902344 494.441406 C 430.574219 492.023438 432.003906 489.472656 433.195312 486.789062 C 434.390625 484.101562 435.324219 481.332031 435.996094 478.46875 C 436.847656 475.261719 437.417969 472.003906 437.707031 468.695312 C 437.996094 465.390625 437.996094 462.082031 437.714844 458.773438 C 437.429688 455.46875 436.867188 452.207031 436.019531 449 C 435.175781 445.789062 434.058594 442.675781 432.675781 439.65625 L 456.363281 416.179688 C 477.195312 439.101562 481.066406 485.332031 454.660156 516.695312 C 449.261719 523.109375 443.066406 528.636719 436.074219 533.265625 C 427.726562 538.679688 418.691406 542.449219 408.972656 544.574219 C 405.347656 545.417969 401.683594 545.984375 397.972656 546.277344 C 395.339844 546.496094 392.699219 546.585938 390.058594 546.542969 C 387.414062 546.503906 384.777344 546.328125 382.152344 546.023438 C 379.523438 545.71875 376.921875 545.285156 374.335938 544.71875 C 371.753906 544.152344 369.207031 543.460938 366.691406 542.640625 C 364.179688 541.824219 361.710938 540.878906 359.292969 539.816406 C 356.871094 538.75 354.511719 537.566406 352.210938 536.265625 C 349.90625 534.964844 347.675781 533.554688 345.515625 532.03125 C 343.355469 530.507812 341.273438 528.878906 339.273438 527.148438 Z M 372.496094 450.515625 L 373.890625 448.65625 C 374.914062 447.433594 376.054688 446.335938 377.320312 445.367188 C 378.585938 444.398438 379.941406 443.578125 381.386719 442.910156 C 382.832031 442.238281 384.332031 441.734375 385.890625 441.398438 C 387.449219 441.0625 389.023438 440.898438 390.617188 440.914062 C 392.714844 440.90625 394.78125 441.164062 396.8125 441.6875 L 384.5 454.851562 C 384.113281 455.261719 383.601562 455.835938 383.042969 456.546875 C 383.042969 456.546875 382.371094 457.398438 381.867188 458.179688 C 380.925781 459.679688 380.320312 461.304688 380.050781 463.054688 C 379.78125 464.804688 379.871094 466.535156 380.316406 468.25 C 381.015625 470.289062 382.179688 472.019531 383.804688 473.4375 C 384.382812 474.003906 385.007812 474.523438 385.675781 474.984375 C 386.484375 475.53125 387.347656 475.964844 388.261719 476.292969 C 388.371094 476.332031 388.425781 476.394531 388.542969 476.433594 C 388.660156 476.472656 388.796875 476.433594 388.921875 476.496094 C 389.953125 476.820312 391.007812 477 392.089844 477.039062 C 393.972656 476.867188 395.75 476.347656 397.425781 475.476562 C 399.101562 474.605469 400.550781 473.449219 401.769531 472.003906 C 404.246094 469.371094 406.648438 466.582031 408.972656 463.949219 C 409.667969 463.175781 410.289062 462.480469 410.90625 461.703125 L 414.160156 458.453125 C 414.496094 459.429688 414.765625 460.429688 414.964844 461.445312 C 415.167969 462.464844 415.296875 463.488281 415.351562 464.523438 C 415.410156 465.558594 415.394531 466.59375 415.308594 467.625 C 415.222656 468.65625 415.066406 469.679688 414.839844 470.691406 C 414.609375 471.699219 414.3125 472.691406 413.949219 473.660156 C 413.582031 474.628906 413.152344 475.570312 412.65625 476.480469 C 412.160156 477.390625 411.601562 478.261719 410.984375 479.09375 C 410.367188 479.925781 409.695312 480.710938 408.972656 481.453125 C 408.09375 482.339844 407.164062 483.164062 406.183594 483.929688 C 405.050781 484.757812 403.859375 485.484375 402.601562 486.105469 C 401.34375 486.726562 400.042969 487.238281 398.695312 487.632812 C 397.351562 488.027344 395.980469 488.304688 394.589844 488.464844 C 393.195312 488.621094 391.796875 488.660156 390.398438 488.574219 C 389 488.492188 387.617188 488.285156 386.25 487.960938 C 384.886719 487.636719 383.5625 487.199219 382.273438 486.644531 C 380.984375 486.089844 379.753906 485.429688 378.582031 484.660156 C 377.40625 483.894531 376.308594 483.03125 375.285156 482.070312 C 372.960938 479.867188 371.179688 477.285156 369.941406 474.328125 C 369.136719 472.390625 368.585938 470.386719 368.285156 468.3125 C 367.984375 466.242188 367.945312 464.160156 368.171875 462.078125 C 368.394531 459.996094 368.871094 457.972656 369.605469 456.007812 C 370.335938 454.046875 371.300781 452.203125 372.496094 450.484375 Z M 547.664062 325.683594 C 546.402344 326.316406 545.089844 326.820312 543.726562 327.195312 C 542.363281 327.566406 540.976562 327.796875 539.566406 327.890625 C 538.15625 327.984375 536.75 327.9375 535.351562 327.746094 C 533.949219 327.558594 532.582031 327.230469 531.246094 326.765625 C 528.074219 313.523438 529.234375 308.101562 535.429688 302.761719 L 538.992188 317.164062 L 553.78125 320.417969 C 552.121094 322.605469 550.082031 324.347656 547.664062 325.652344 Z M 58.710938 363.132812 C 57.78125 362.199219 57.003906 361.148438 56.382812 359.988281 C 55.757812 358.824219 55.316406 357.597656 55.054688 356.304688 C 54.792969 355.011719 54.722656 353.710938 54.847656 352.398438 C 54.96875 351.085938 55.277344 349.816406 55.773438 348.597656 C 56.269531 347.375 56.929688 346.25 57.753906 345.222656 C 58.582031 344.195312 59.539062 343.308594 60.625 342.5625 C 61.714844 341.816406 62.886719 341.242188 64.140625 340.84375 C 65.398438 340.441406 66.6875 340.230469 68.003906 340.210938 C 69.898438 340.261719 71.714844 340.664062 73.453125 341.410156 C 75.195312 342.160156 76.734375 343.207031 78.070312 344.546875 C 83.492188 349.96875 88.679688 355.542969 94.101562 361.351562 L 98.902344 366.460938 L 138.320312 319.222656 C 140.101562 317.054688 141.882812 314.886719 143.816406 312.875 C 144.359375 312.195312 144.960938 311.574219 145.628906 311.015625 C 146.292969 310.453125 147.003906 309.964844 147.765625 309.546875 C 148.527344 309.128906 149.324219 308.789062 150.152344 308.527344 C 150.980469 308.265625 151.828125 308.089844 152.691406 307.996094 C 153.554688 307.902344 154.417969 307.894531 155.285156 307.972656 C 156.152344 308.050781 157 308.210938 157.832031 308.457031 C 158.667969 308.703125 159.46875 309.027344 160.238281 309.433594 C 161.007812 309.835938 161.726562 310.3125 162.402344 310.859375 C 163.808594 311.949219 164.953125 313.265625 165.835938 314.808594 C 166.722656 316.351562 167.28125 318.003906 167.515625 319.765625 C 167.683594 321.65625 167.488281 323.503906 166.925781 325.316406 C 166.363281 327.125 165.472656 328.761719 164.261719 330.21875 C 158.066406 337.964844 151.640625 345.628906 145.289062 353.21875 L 129.878906 371.648438 C 123.839844 378.851562 117.796875 386.054688 111.914062 393.332031 C 111.300781 394.207031 110.609375 395.007812 109.828125 395.734375 C 109.050781 396.460938 108.203125 397.097656 107.289062 397.644531 C 106.375 398.191406 105.414062 398.636719 104.402344 398.980469 C 103.394531 399.324219 102.363281 399.558594 101.304688 399.683594 C 101.074219 399.746094 100.84375 399.773438 100.605469 399.761719 C 98.8125 399.695312 97.101562 399.292969 95.464844 398.558594 C 93.828125 397.820312 92.394531 396.800781 91.160156 395.5 C 81.554688 386.363281 71.566406 376.375 58.710938 363.132812 Z M 165.734375 435.492188 C 164.816406 437.199219 163.679688 438.75 162.324219 440.136719 L 161.472656 441.144531 C 145.445312 460.425781 129.414062 479.65625 113.382812 498.835938 C 112.707031 499.910156 111.921875 500.898438 111.03125 501.804688 C 110.140625 502.707031 109.164062 503.507812 108.101562 504.203125 C 107.039062 504.898438 105.917969 505.472656 104.730469 505.925781 C 103.546875 506.378906 102.324219 506.699219 101.070312 506.890625 L 100.605469 506.890625 C 99.367188 506.753906 98.152344 506.496094 96.964844 506.117188 C 95.777344 505.738281 94.640625 505.246094 93.550781 504.640625 C 92.460938 504.035156 91.441406 503.328125 90.488281 502.523438 C 89.539062 501.714844 88.679688 500.820312 87.90625 499.84375 C 78.382812 490.394531 69.242188 481.257812 60.105469 472.042969 C 59.71875 471.75 59.347656 471.4375 58.992188 471.101562 C 58.640625 470.769531 58.304688 470.417969 57.988281 470.050781 C 57.671875 469.683594 57.378906 469.296875 57.101562 468.898438 C 56.828125 468.496094 56.574219 468.082031 56.34375 467.65625 C 56.113281 467.226562 55.90625 466.789062 55.722656 466.339844 C 55.539062 465.890625 55.378906 465.429688 55.246094 464.964844 C 55.113281 464.496094 55.003906 464.023438 54.917969 463.546875 C 54.835938 463.066406 54.777344 462.585938 54.746094 462.101562 C 54.710938 461.617188 54.707031 461.132812 54.726562 460.644531 C 54.746094 460.160156 54.789062 459.679688 54.863281 459.199219 C 54.933594 458.71875 55.03125 458.242188 55.152344 457.773438 C 55.273438 457.300781 55.421875 456.839844 55.59375 456.386719 C 55.765625 455.929688 55.960938 455.488281 56.179688 455.054688 C 56.398438 454.621094 56.640625 454.199219 56.90625 453.792969 C 57.167969 453.382812 57.457031 452.992188 57.761719 452.613281 C 58.066406 452.238281 58.394531 451.878906 58.738281 451.535156 C 59.082031 451.195312 59.445312 450.871094 59.824219 450.566406 C 60.203125 450.265625 60.597656 449.984375 61.007812 449.722656 C 61.417969 449.460938 61.839844 449.222656 62.277344 449.007812 C 62.710938 448.789062 63.15625 448.597656 63.613281 448.429688 C 64.066406 448.261719 64.53125 448.121094 65.003906 448 C 65.472656 447.882812 65.949219 447.789062 66.429688 447.722656 C 66.910156 447.65625 67.394531 447.613281 67.878906 447.597656 C 68.367188 447.582031 68.851562 447.59375 69.335938 447.628906 C 69.820312 447.664062 70.300781 447.726562 70.777344 447.8125 C 71.257812 447.902344 71.726562 448.015625 72.195312 448.152344 C 72.660156 448.292969 73.117188 448.453125 73.566406 448.640625 C 74.011719 448.828125 74.449219 449.039062 74.875 449.273438 C 75.300781 449.507812 75.714844 449.765625 76.113281 450.042969 C 76.507812 450.320312 76.890625 450.617188 77.257812 450.9375 C 77.625 451.257812 77.972656 451.59375 78.304688 451.949219 C 78.632812 452.308594 78.941406 452.679688 79.234375 453.070312 C 84.265625 458.105469 89.222656 463.214844 94.488281 468.558594 L 99.210938 473.515625 L 139.171875 425.65625 C 140.988281 423.332031 142.949219 421.140625 145.058594 419.074219 C 145.625 418.453125 146.246094 417.894531 146.921875 417.398438 C 147.601562 416.902344 148.320312 416.476562 149.082031 416.125 C 149.84375 415.769531 150.632812 415.496094 151.449219 415.296875 C 152.265625 415.101562 153.09375 414.984375 153.933594 414.953125 C 154.773438 414.921875 155.605469 414.972656 156.4375 415.105469 C 157.265625 415.238281 158.074219 415.453125 158.859375 415.746094 C 159.648438 416.039062 160.398438 416.40625 161.109375 416.851562 C 161.824219 417.292969 162.488281 417.800781 163.101562 418.378906 C 163.714844 418.878906 164.28125 419.429688 164.792969 420.035156 C 165.308594 420.636719 165.761719 421.285156 166.15625 421.972656 C 166.550781 422.660156 166.878906 423.378906 167.140625 424.128906 C 167.402344 424.875 167.59375 425.644531 167.714844 426.425781 C 167.835938 427.210938 167.882812 428 167.859375 428.792969 C 167.832031 429.585938 167.734375 430.367188 167.566406 431.144531 C 167.398438 431.917969 167.160156 432.671875 166.851562 433.402344 C 166.542969 434.132812 166.167969 434.828125 165.734375 435.492188 Z M 162.945312 526.09375 C 169.0625 531.4375 168.90625 539.492188 162.636719 547.160156 C 158.375 552.347656 154.117188 557.457031 149.859375 562.492188 L 134.757812 580.691406 C 127.402344 589.441406 120.042969 598.242188 112.6875 607.097656 C 112.023438 608.066406 111.269531 608.957031 110.417969 609.769531 C 109.570312 610.578125 108.644531 611.289062 107.640625 611.902344 C 106.640625 612.519531 105.585938 613.019531 104.480469 613.410156 C 103.371094 613.800781 102.234375 614.070312 101.070312 614.222656 C 100.894531 614.28125 100.714844 614.304688 100.527344 614.300781 C 98.335938 614.113281 96.261719 613.519531 94.300781 612.511719 C 92.34375 611.507812 90.652344 610.167969 89.222656 608.492188 C 79.386719 598.734375 69.554688 588.976562 59.875 579.140625 C 58.304688 577.660156 57.082031 575.929688 56.210938 573.957031 C 55.335938 571.984375 54.878906 569.917969 54.839844 567.757812 C 54.898438 565.996094 55.296875 564.316406 56.035156 562.71875 C 56.773438 561.121094 57.796875 559.726562 59.097656 558.542969 C 59.445312 558.230469 59.804688 557.9375 60.183594 557.664062 C 60.558594 557.390625 60.945312 557.136719 61.347656 556.898438 C 61.75 556.664062 62.164062 556.449219 62.585938 556.257812 C 63.007812 556.0625 63.441406 555.890625 63.882812 555.742188 C 64.324219 555.59375 64.769531 555.464844 65.222656 555.363281 C 65.675781 555.257812 66.136719 555.175781 66.597656 555.117188 C 67.058594 555.0625 67.523438 555.027344 67.988281 555.015625 C 68.453125 555.003906 68.917969 555.015625 69.382812 555.054688 C 69.84375 555.089844 70.308594 555.148438 70.765625 555.230469 C 71.222656 555.3125 71.675781 555.417969 72.121094 555.546875 C 72.570312 555.675781 73.007812 555.828125 73.441406 556 C 73.875 556.175781 74.296875 556.371094 74.707031 556.585938 C 75.121094 556.800781 75.519531 557.039062 75.910156 557.292969 C 76.296875 557.550781 76.671875 557.824219 77.03125 558.121094 C 77.394531 558.414062 77.738281 558.726562 78.066406 559.054688 C 78.394531 559.386719 78.707031 559.730469 79 560.089844 C 84.1875 565.28125 89.222656 570.546875 94.488281 576.042969 L 99.210938 581 L 139.015625 533.21875 C 139.867188 532.136719 140.796875 531.050781 141.726562 529.96875 C 143.164062 528.003906 144.921875 526.390625 147 525.128906 C 149.082031 523.867188 151.324219 523.054688 153.730469 522.6875 C 155.433594 522.605469 157.085938 522.859375 158.6875 523.449219 C 160.285156 524.039062 161.707031 524.921875 162.945312 526.09375 Z M 162.945312 526.09375 " fill-opacity="1" fill-rule="nonzero"/></g></svg>