<svg xmlns="http://www.w3.org/2000/svg" xmlns:xlink="http://www.w3.org/1999/xlink" width="794" zoomAndPan="magnify" viewBox="0 0 594.95996 842.24997" height="1123" preserveAspectRatio="xMidYMid meet" version="1.0"><defs><g/><clipPath id="fb7ba5f8ef"><path d="M 0.246094 140.003906 L 348.90625 140.003906 L 348.90625 488.667969 L 0.246094 488.667969 Z M 0.246094 140.003906 " clip-rule="nonzero"/></clipPath><clipPath id="4a57987363"><path d="M 174.578125 140.003906 C 78.023438 140.003906 0.246094 217.78125 0.246094 314.335938 C 0.246094 410.886719 78.023438 488.667969 174.578125 488.667969 C 270.234375 488.667969 348.90625 410.886719 348.90625 314.335938 C 348.90625 217.78125 270.234375 140.003906 174.578125 140.003906 Z M 174.578125 461.847656 C 93.222656 461.847656 27.066406 395.691406 27.066406 314.335938 C 27.066406 232.980469 93.222656 166.824219 174.578125 166.824219 C 255.929688 166.824219 322.085938 232.980469 322.085938 314.335938 C 322.085938 395.691406 255.929688 461.847656 174.578125 461.847656 Z M 174.578125 461.847656 " clip-rule="nonzero"/></clipPath><clipPath id="9dc887dce5"><path d="M 27 166 L 323 166 L 323 462 L 27 462 Z M 27 166 " clip-rule="nonzero"/></clipPath><clipPath id="6991d103d4"><path d="M 174.578125 166.824219 C 93.222656 166.824219 27.066406 232.980469 27.066406 314.335938 C 27.066406 395.691406 93.222656 461.847656 174.578125 461.847656 C 255.929688 461.847656 322.085938 395.691406 322.085938 314.335938 C 322.085938 232.980469 255.929688 166.824219 174.578125 166.824219 Z M 174.578125 166.824219 " clip-rule="nonzero"/></clipPath><clipPath id="5157bb565b"><path d="M 73 207 L 241.167969 207 L 241.167969 424.039062 L 73 424.039062 Z M 73 207 " clip-rule="nonzero"/></clipPath><clipPath id="2d228c15e4"><path d="M 166.53125 209.234375 L 272 209.234375 L 272 421 L 166.53125 421 Z M 166.53125 209.234375 " clip-rule="nonzero"/></clipPath></defs><g clip-path="url(#fb7ba5f8ef)"><g clip-path="url(#4a57987363)"><path fill="#ffffff" d="M 0.246094 140.003906 L 348.90625 140.003906 L 348.90625 488.667969 L 0.246094 488.667969 Z M 0.246094 140.003906 " fill-opacity="1" fill-rule="nonzero"/></g></g><g clip-path="url(#9dc887dce5)"><g clip-path="url(#6991d103d4)"><path fill="#130f27" d="M 0.246094 140.003906 L 348.90625 140.003906 L 348.90625 488.667969 L 0.246094 488.667969 Z M 0.246094 140.003906 " fill-opacity="1" fill-rule="nonzero"/></g></g><g clip-path="url(#5157bb565b)"><path fill="#10509f" d="M 131.050781 262.304688 L 75.785156 317.574219 L 179.429688 421.21875 L 207.054688 421.054688 L 234.683594 420.890625 L 132.332031 318.1875 L 147.097656 303.277344 C 155.21875 295.078125 179.308594 270.808594 200.628906 249.347656 C 225.515625 224.300781 239.394531 209.886719 239.394531 209.097656 C 239.394531 207.914062 238.75 207.84375 224.792969 207.449219 C 216.761719 207.222656 204.820312 207.035156 198.253906 207.035156 L 186.320312 207.03125 Z M 73.613281 246.515625 L 73.585938 283.171875 L 81.59375 275.609375 C 94.84375 263.097656 108.128906 249.101562 108.128906 247.65625 C 108.128906 247.140625 102.125 240.300781 94.78125 232.457031 C 89.035156 226.3125 83.285156 220.171875 77.539062 214.03125 L 73.644531 209.859375 Z M 488.339844 226.347656 C 482.039062 233.308594 476.195312 240.015625 467.804688 249.914062 L 460.476562 258.5625 L 460.449219 302.671875 L 460.421875 346.777344 L 438.722656 324.859375 L 417.019531 302.945312 L 402.945312 317.003906 L 388.875 331.066406 L 413.527344 355.785156 C 427.085938 369.378906 450.613281 392.660156 465.8125 407.519531 L 493.445312 434.539062 L 493.972656 431.796875 C 494.636719 428.375 494.773438 230.78125 494.117188 225.402344 C 493.855469 223.246094 493.4375 221.476562 493.195312 221.476562 C 492.949219 221.476562 490.765625 223.667969 488.339844 226.347656 " fill-opacity="1" fill-rule="evenodd"/></g><g clip-path="url(#2d228c15e4)"><path fill="#fecc00" d="M -86.789062 250.71875 L -141.214844 305.152344 L -90.179688 356.183594 L -39.144531 407.21875 L 15.269531 406.898438 L -35.128906 356.324219 L -85.527344 305.753906 L -70.984375 291.070312 C -62.988281 282.996094 -39.265625 259.097656 -18.269531 237.960938 C 6.238281 213.296875 19.910156 199.101562 19.910156 198.320312 C 19.910156 197.160156 19.273438 197.085938 5.527344 196.699219 C -2.382812 196.476562 -14.140625 196.292969 -20.605469 196.289062 L -32.359375 196.289062 Z M -143.351562 235.171875 L -143.382812 271.273438 L -135.496094 263.824219 C -122.449219 251.503906 -109.363281 237.71875 -109.363281 236.292969 C -109.363281 235.785156 -115.277344 229.050781 -122.507812 221.328125 C -128.167969 215.277344 -133.828125 209.226562 -139.488281 203.179688 L -143.324219 199.074219 Z M 265.074219 215.308594 C 258.863281 222.167969 253.113281 228.769531 244.851562 238.515625 L 237.632812 247.035156 L 237.578125 333.910156 L 216.207031 312.328125 L 194.835938 290.742188 L 180.976562 304.589844 L 167.117188 318.441406 L 191.394531 342.78125 C 204.75 356.171875 227.917969 379.097656 242.886719 393.730469 L 270.097656 420.339844 L 270.621094 417.636719 C 271.273438 414.269531 271.410156 219.675781 270.761719 214.382812 C 270.503906 212.253906 270.09375 210.515625 269.851562 210.515625 C 269.609375 210.515625 267.460938 212.671875 265.074219 215.308594 " fill-opacity="1" fill-rule="evenodd"/></g><g fill="#000000" fill-opacity="1"><g transform="translate(337.824782, 271.732018)"><g><path d="M 5.140625 0 L 3.046875 0 L 3.046875 -24.5 L 5.140625 -19.46875 Z M 4.078125 -24.5 L 6.203125 -24.5 L 16.265625 0 L 14.140625 0 Z M 22.84375 -24.5 L 24.984375 -24.5 L 16.09375 -2.796875 L 15.0625 -5.328125 Z M 25.96875 -24.5 L 25.96875 0 L 23.84375 0 L 23.84375 -19.4375 Z M 25.96875 -24.5 "/></g></g></g><g fill="#000000" fill-opacity="1"><g transform="translate(366.841524, 271.732018)"><g><path d="M 3.046875 -24.5 L 5.140625 -24.5 L 5.140625 0 L 3.046875 0 Z M 3.046875 -24.5 "/></g></g></g><g fill="#000000" fill-opacity="1"><g transform="translate(375.03233, 271.732018)"><g><path d="M 5.296875 -24.5 L 22.84375 0 L 19.953125 0 L 2.640625 -24.5 Z M 20.609375 -24.5 L 22.703125 -24.5 L 22.703125 -1.875 L 20.609375 -4.671875 Z M 4.921875 0 L 2.828125 0 L 2.828125 -22.40625 L 4.921875 -19.390625 Z M 4.921875 0 "/></g></g></g><g fill="#000000" fill-opacity="1"><g transform="translate(400.706633, 271.732018)"><g><path d="M 14.0625 -32.03125 L 16.5625 -32.03125 L 11.71875 -26.75 L 9.109375 -26.75 Z M 19.0625 -32.03125 L 21.5625 -32.03125 L 16.71875 -26.75 L 14.109375 -26.75 Z M 2.125 -12.234375 C 2.125 -14.585938 2.59375 -16.707031 3.53125 -18.59375 C 4.476562 -20.476562 5.820312 -21.984375 7.5625 -23.109375 C 9.300781 -24.234375 11.335938 -24.820312 13.671875 -24.875 L 13.671875 -23 C 11.753906 -22.945312 10.097656 -22.441406 8.703125 -21.484375 C 7.304688 -20.535156 6.226562 -19.265625 5.46875 -17.671875 C 4.707031 -16.078125 4.328125 -14.265625 4.328125 -12.234375 C 4.328125 -10.222656 4.707031 -8.414062 5.46875 -6.8125 C 6.226562 -5.207031 7.304688 -3.929688 8.703125 -2.984375 C 10.097656 -2.046875 11.753906 -1.539062 13.671875 -1.46875 L 13.671875 0.40625 C 11.335938 0.332031 9.300781 -0.257812 7.5625 -1.375 C 5.820312 -2.488281 4.476562 -3.988281 3.53125 -5.875 C 2.59375 -7.757812 2.125 -9.878906 2.125 -12.234375 Z M 25.9375 -12.234375 C 25.9375 -9.910156 25.460938 -7.8125 24.515625 -5.9375 C 23.578125 -4.0625 22.253906 -2.5625 20.546875 -1.4375 C 18.847656 -0.3125 16.859375 0.300781 14.578125 0.40625 L 14.578125 -1.46875 C 16.441406 -1.5625 18.050781 -2.085938 19.40625 -3.046875 C 20.769531 -4.003906 21.832031 -5.273438 22.59375 -6.859375 C 23.351562 -8.453125 23.734375 -10.242188 23.734375 -12.234375 C 23.734375 -14.242188 23.351562 -16.035156 22.59375 -17.609375 C 21.832031 -19.191406 20.769531 -20.457031 19.40625 -21.40625 C 18.050781 -22.363281 16.441406 -22.878906 14.578125 -22.953125 L 14.578125 -24.875 C 16.859375 -24.800781 18.847656 -24.191406 20.546875 -23.046875 C 22.253906 -21.910156 23.578125 -20.40625 24.515625 -18.53125 C 25.460938 -16.65625 25.9375 -14.554688 25.9375 -12.234375 Z M 25.9375 -12.234375 "/></g></g></g><g fill="#000000" fill-opacity="1"><g transform="translate(428.768409, 271.732018)"><g><path d="M 4.671875 -18.484375 C 4.671875 -17.597656 4.925781 -16.882812 5.4375 -16.34375 C 5.945312 -15.800781 6.625 -15.359375 7.46875 -15.015625 C 8.320312 -14.679688 9.25 -14.363281 10.25 -14.0625 L 10.25 -11.71875 C 9.289062 -11.988281 8.347656 -12.28125 7.421875 -12.59375 C 6.492188 -12.914062 5.65625 -13.304688 4.90625 -13.765625 C 4.15625 -14.234375 3.550781 -14.84375 3.09375 -15.59375 C 2.644531 -16.34375 2.421875 -17.265625 2.421875 -18.359375 C 2.421875 -19.679688 2.769531 -20.820312 3.46875 -21.78125 C 4.164062 -22.738281 5.109375 -23.492188 6.296875 -24.046875 C 7.484375 -24.597656 8.800781 -24.882812 10.25 -24.90625 L 10.25 -23 C 8.65625 -22.96875 7.328125 -22.53125 6.265625 -21.6875 C 5.203125 -20.84375 4.671875 -19.773438 4.671875 -18.484375 Z M 17.40625 -19.90625 C 16.601562 -20.863281 15.664062 -21.59375 14.59375 -22.09375 C 13.53125 -22.59375 12.390625 -22.878906 11.171875 -22.953125 L 11.171875 -24.875 C 12.835938 -24.800781 14.304688 -24.460938 15.578125 -23.859375 C 16.847656 -23.253906 17.925781 -22.453125 18.8125 -21.453125 Z M 19.359375 -6.5 C 19.359375 -5.46875 19.109375 -4.429688 18.609375 -3.390625 C 18.109375 -2.359375 17.265625 -1.476562 16.078125 -0.75 C 14.890625 -0.03125 13.253906 0.363281 11.171875 0.4375 L 11.171875 -1.46875 C 12.710938 -1.519531 13.914062 -1.804688 14.78125 -2.328125 C 15.65625 -2.859375 16.269531 -3.488281 16.625 -4.21875 C 16.976562 -4.957031 17.15625 -5.671875 17.15625 -6.359375 C 17.15625 -7.410156 16.875 -8.253906 16.3125 -8.890625 C 15.75 -9.523438 15.015625 -10.035156 14.109375 -10.421875 C 13.203125 -10.816406 12.222656 -11.164062 11.171875 -11.46875 L 11.171875 -13.8125 C 12.148438 -13.539062 13.117188 -13.234375 14.078125 -12.890625 C 15.046875 -12.546875 15.925781 -12.109375 16.71875 -11.578125 C 17.519531 -11.054688 18.160156 -10.382812 18.640625 -9.5625 C 19.117188 -8.75 19.359375 -7.726562 19.359375 -6.5 Z M 3.046875 -5.03125 C 3.804688 -4.175781 4.785156 -3.382812 5.984375 -2.65625 C 7.179688 -1.9375 8.601562 -1.539062 10.25 -1.46875 L 10.25 0.4375 C 8.3125 0.394531 6.625 0.00390625 5.1875 -0.734375 C 3.757812 -1.472656 2.59375 -2.378906 1.6875 -3.453125 Z M 3.046875 -5.03125 "/></g></g></g><g fill="#000000" fill-opacity="1"><g transform="translate(450.108596, 271.732018)"><g><path d="M 13.625 -32.03125 L 16.125 -32.03125 L 11.28125 -26.75 L 8.671875 -26.75 Z M 3.046875 -24.5 L 5.140625 -24.5 L 5.140625 0 L 3.046875 0 Z M 18.59375 -24.5 L 18.59375 -22.59375 L 6.0625 -22.59375 L 6.0625 -24.5 Z M 18.328125 -13.515625 L 18.328125 -11.609375 L 6.0625 -11.609375 L 6.0625 -13.515625 Z M 18.59375 -1.90625 L 18.59375 0 L 6.0625 0 L 6.0625 -1.90625 Z M 18.59375 -1.90625 "/></g></g></g><g fill="#000000" fill-opacity="1"><g transform="translate(470.824362, 271.732018)"><g><path d="M 21.671875 -19.4375 C 20.910156 -20.507812 19.894531 -21.363281 18.625 -22 C 17.351562 -22.632812 15.992188 -22.96875 14.546875 -23 L 14.546875 -24.90625 C 16.484375 -24.882812 18.191406 -24.476562 19.671875 -23.6875 C 21.148438 -22.90625 22.40625 -21.867188 23.4375 -20.578125 Z M 4.296875 -12.234375 C 4.296875 -10.242188 4.707031 -8.46875 5.53125 -6.90625 C 6.351562 -5.34375 7.46875 -4.085938 8.875 -3.140625 C 10.28125 -2.191406 11.863281 -1.644531 13.625 -1.5 L 13.625 0.40625 C 11.445312 0.257812 9.488281 -0.351562 7.75 -1.4375 C 6.007812 -2.53125 4.628906 -4 3.609375 -5.84375 C 2.597656 -7.695312 2.09375 -9.828125 2.09375 -12.234375 C 2.09375 -14.628906 2.597656 -16.75 3.609375 -18.59375 C 4.628906 -20.445312 6.007812 -21.921875 7.75 -23.015625 C 9.488281 -24.109375 11.445312 -24.726562 13.625 -24.875 L 13.625 -22.953125 C 11.863281 -22.804688 10.28125 -22.269531 8.875 -21.34375 C 7.46875 -20.414062 6.351562 -19.171875 5.53125 -17.609375 C 4.707031 -16.054688 4.296875 -14.265625 4.296875 -12.234375 Z M 23.765625 -10.609375 L 13.625 -10.609375 L 13.625 -12.484375 L 23.765625 -12.484375 Z M 23.765625 -3.5625 C 22.640625 -2.289062 21.304688 -1.3125 19.765625 -0.625 C 18.222656 0.0625 16.484375 0.414062 14.546875 0.4375 L 14.546875 -1.46875 C 15.921875 -1.46875 17.273438 -1.742188 18.609375 -2.296875 C 19.941406 -2.847656 20.988281 -3.585938 21.75 -4.515625 L 21.75 -9.84375 L 23.765625 -9.84375 Z M 23.765625 -3.5625 "/></g></g></g><g fill="#000000" fill-opacity="1"><g transform="translate(337.824782, 321.853886)"><g><path d="M 4.671875 -18.484375 C 4.671875 -17.597656 4.925781 -16.882812 5.4375 -16.34375 C 5.945312 -15.800781 6.625 -15.359375 7.46875 -15.015625 C 8.320312 -14.679688 9.25 -14.363281 10.25 -14.0625 L 10.25 -11.71875 C 9.289062 -11.988281 8.347656 -12.28125 7.421875 -12.59375 C 6.492188 -12.914062 5.65625 -13.304688 4.90625 -13.765625 C 4.15625 -14.234375 3.550781 -14.84375 3.09375 -15.59375 C 2.644531 -16.34375 2.421875 -17.265625 2.421875 -18.359375 C 2.421875 -19.679688 2.769531 -20.820312 3.46875 -21.78125 C 4.164062 -22.738281 5.109375 -23.492188 6.296875 -24.046875 C 7.484375 -24.597656 8.800781 -24.882812 10.25 -24.90625 L 10.25 -23 C 8.65625 -22.96875 7.328125 -22.53125 6.265625 -21.6875 C 5.203125 -20.84375 4.671875 -19.773438 4.671875 -18.484375 Z M 17.40625 -19.90625 C 16.601562 -20.863281 15.664062 -21.59375 14.59375 -22.09375 C 13.53125 -22.59375 12.390625 -22.878906 11.171875 -22.953125 L 11.171875 -24.875 C 12.835938 -24.800781 14.304688 -24.460938 15.578125 -23.859375 C 16.847656 -23.253906 17.925781 -22.453125 18.8125 -21.453125 Z M 19.359375 -6.5 C 19.359375 -5.46875 19.109375 -4.429688 18.609375 -3.390625 C 18.109375 -2.359375 17.265625 -1.476562 16.078125 -0.75 C 14.890625 -0.03125 13.253906 0.363281 11.171875 0.4375 L 11.171875 -1.46875 C 12.710938 -1.519531 13.914062 -1.804688 14.78125 -2.328125 C 15.65625 -2.859375 16.269531 -3.488281 16.625 -4.21875 C 16.976562 -4.957031 17.15625 -5.671875 17.15625 -6.359375 C 17.15625 -7.410156 16.875 -8.253906 16.3125 -8.890625 C 15.75 -9.523438 15.015625 -10.035156 14.109375 -10.421875 C 13.203125 -10.816406 12.222656 -11.164062 11.171875 -11.46875 L 11.171875 -13.8125 C 12.148438 -13.539062 13.117188 -13.234375 14.078125 -12.890625 C 15.046875 -12.546875 15.925781 -12.109375 16.71875 -11.578125 C 17.519531 -11.054688 18.160156 -10.382812 18.640625 -9.5625 C 19.117188 -8.75 19.359375 -7.726562 19.359375 -6.5 Z M 3.046875 -5.03125 C 3.804688 -4.175781 4.785156 -3.382812 5.984375 -2.65625 C 7.179688 -1.9375 8.601562 -1.539062 10.25 -1.46875 L 10.25 0.4375 C 8.3125 0.394531 6.625 0.00390625 5.1875 -0.734375 C 3.757812 -1.472656 2.59375 -2.378906 1.6875 -3.453125 Z M 3.046875 -5.03125 "/></g></g></g><g fill="#000000" fill-opacity="1"><g transform="translate(359.164969, 321.853886)"><g><path d="M 1.84375 -22.59375 L 1.84375 -24.5 L 19.25 -24.5 L 19.25 -22.59375 Z M 18.515625 -21.671875 L 5.140625 -2.828125 L 2.53125 -2.828125 L 15.9375 -21.671875 Z M 19.5 0 L 1.796875 0 L 1.796875 -1.90625 L 19.5 -1.90625 Z M 19.5 0 "/></g></g></g><g fill="#000000" fill-opacity="1"><g transform="translate(380.505155, 321.853886)"><g><path d="M 2.96875 0 L 0.546875 0 L 10.578125 -24.5 L 12.78125 -24.5 Z M 23.21875 0 L 20.796875 0 L 12.421875 -21.015625 L 13.5625 -23.953125 Z M 16.34375 -8.59375 L 17.15625 -6.578125 L 6.65625 -6.578125 L 7.421875 -8.59375 Z M 16.34375 -8.59375 "/></g></g></g><g fill="#000000" fill-opacity="1"><g transform="translate(404.269526, 321.853886)"><g><path d="M 3.015625 -24.5 L 5.109375 -24.5 L 5.109375 0 L 3.015625 0 Z M 16.9375 -24.5 L 19.609375 -24.5 L 6.03125 -9.546875 L 6.03125 -12.484375 Z M 9.84375 -12.234375 L 20.640625 0 L 17.96875 0 L 8.484375 -10.84375 Z M 9.84375 -12.234375 "/></g></g></g><g fill="#000000" fill-opacity="1"><g transform="translate(425.79334, 321.853886)"><g><path d="M 13.625 -32.03125 L 16.125 -32.03125 L 11.28125 -26.75 L 8.671875 -26.75 Z M 3.046875 -24.5 L 5.140625 -24.5 L 5.140625 0 L 3.046875 0 Z M 18.59375 -24.5 L 18.59375 -22.59375 L 6.0625 -22.59375 L 6.0625 -24.5 Z M 18.328125 -13.515625 L 18.328125 -11.609375 L 6.0625 -11.609375 L 6.0625 -13.515625 Z M 18.59375 -1.90625 L 18.59375 0 L 6.0625 0 L 6.0625 -1.90625 Z M 18.59375 -1.90625 "/></g></g></g><g fill="#000000" fill-opacity="1"><g transform="translate(446.509107, 321.853886)"><g><path d="M 5.109375 0 L 3.015625 0 L 3.015625 -24.5 L 5.109375 -24.5 Z M 17.40625 -17.34375 C 17.40625 -18.882812 16.910156 -20.144531 15.921875 -21.125 C 14.929688 -22.101562 13.613281 -22.59375 11.96875 -22.59375 L 6.03125 -22.59375 L 6.03125 -24.5 L 12.15625 -24.5 C 13.582031 -24.5 14.847656 -24.210938 15.953125 -23.640625 C 17.066406 -23.066406 17.953125 -22.242188 18.609375 -21.171875 C 19.273438 -20.109375 19.609375 -18.832031 19.609375 -17.34375 C 19.609375 -15.84375 19.273438 -14.5625 18.609375 -13.5 C 17.953125 -12.4375 17.066406 -11.613281 15.953125 -11.03125 C 14.847656 -10.457031 13.582031 -10.171875 12.15625 -10.171875 L 6.03125 -10.171875 L 6.03125 -12.078125 L 11.96875 -12.078125 C 13.613281 -12.078125 14.929688 -12.566406 15.921875 -13.546875 C 16.910156 -14.535156 17.40625 -15.800781 17.40625 -17.34375 Z M 10.984375 -9.375 L 13.484375 -9.375 L 19.90625 0 L 17.1875 0 Z M 10.984375 -9.375 "/></g></g></g><g fill="#000000" fill-opacity="1"><g transform="translate(468.326758, 321.853886)"><g><path d="M 8.40625 -22.59375 L 1.28125 -22.59375 L 1.28125 -24.5 L 8.40625 -24.5 Z M 11.421875 -24.5 L 11.421875 0 L 9.328125 0 L 9.328125 -24.5 Z M 19.4375 -24.5 L 19.4375 -22.59375 L 12.34375 -22.59375 L 12.34375 -24.5 Z M 19.4375 -24.5 "/></g></g></g><g fill="#000000" fill-opacity="1"><g transform="translate(489.042525, 321.853886)"><g><path d="M 3.046875 -24.5 L 5.140625 -24.5 L 5.140625 0 L 3.046875 0 Z M 18.59375 -24.5 L 18.59375 -22.59375 L 6.0625 -22.59375 L 6.0625 -24.5 Z M 18.328125 -13.515625 L 18.328125 -11.609375 L 6.0625 -11.609375 L 6.0625 -13.515625 Z M 18.59375 -1.90625 L 18.59375 0 L 6.0625 0 L 6.0625 -1.90625 Z M 18.59375 -1.90625 "/></g></g></g><g fill="#000000" fill-opacity="1"><g transform="translate(509.758292, 321.853886)"><g><path d="M 2.53125 -24.5 L 4.671875 -24.5 L 4.671875 0 L 2.53125 0 Z M 16.53125 -1.90625 L 16.53125 0 L 5.578125 0 L 5.578125 -1.90625 Z M 16.53125 -1.90625 "/></g></g></g><g fill="#000000" fill-opacity="1"><g transform="translate(527.535662, 321.853886)"><g><path d="M 3.046875 -24.5 L 5.140625 -24.5 L 5.140625 0 L 3.046875 0 Z M 18.59375 -24.5 L 18.59375 -22.59375 L 6.0625 -22.59375 L 6.0625 -24.5 Z M 18.328125 -13.515625 L 18.328125 -11.609375 L 6.0625 -11.609375 L 6.0625 -13.515625 Z M 18.59375 -1.90625 L 18.59375 0 L 6.0625 0 L 6.0625 -1.90625 Z M 18.59375 -1.90625 "/></g></g></g><g fill="#000000" fill-opacity="1"><g transform="translate(548.251429, 321.853886)"><g><path d="M 5.140625 0 L 3.046875 0 L 3.046875 -24.5 L 5.140625 -19.46875 Z M 4.078125 -24.5 L 6.203125 -24.5 L 16.265625 0 L 14.140625 0 Z M 22.84375 -24.5 L 24.984375 -24.5 L 16.09375 -2.796875 L 15.0625 -5.328125 Z M 25.96875 -24.5 L 25.96875 0 L 23.84375 0 L 23.84375 -19.4375 Z M 25.96875 -24.5 "/></g></g></g><g fill="#000000" fill-opacity="1"><g transform="translate(337.824782, 371.975754)"><g><path d="M 21.671875 -19.4375 C 20.910156 -20.507812 19.894531 -21.363281 18.625 -22 C 17.351562 -22.632812 15.992188 -22.96875 14.546875 -23 L 14.546875 -24.90625 C 16.484375 -24.882812 18.191406 -24.476562 19.671875 -23.6875 C 21.148438 -22.90625 22.40625 -21.867188 23.4375 -20.578125 Z M 4.296875 -12.234375 C 4.296875 -10.242188 4.707031 -8.46875 5.53125 -6.90625 C 6.351562 -5.34375 7.46875 -4.085938 8.875 -3.140625 C 10.28125 -2.191406 11.863281 -1.644531 13.625 -1.5 L 13.625 0.40625 C 11.445312 0.257812 9.488281 -0.351562 7.75 -1.4375 C 6.007812 -2.53125 4.628906 -4 3.609375 -5.84375 C 2.597656 -7.695312 2.09375 -9.828125 2.09375 -12.234375 C 2.09375 -14.628906 2.597656 -16.75 3.609375 -18.59375 C 4.628906 -20.445312 6.007812 -21.921875 7.75 -23.015625 C 9.488281 -24.109375 11.445312 -24.726562 13.625 -24.875 L 13.625 -22.953125 C 11.863281 -22.804688 10.28125 -22.269531 8.875 -21.34375 C 7.46875 -20.414062 6.351562 -19.171875 5.53125 -17.609375 C 4.707031 -16.054688 4.296875 -14.265625 4.296875 -12.234375 Z M 23.765625 -10.609375 L 13.625 -10.609375 L 13.625 -12.484375 L 23.765625 -12.484375 Z M 23.765625 -3.5625 C 22.640625 -2.289062 21.304688 -1.3125 19.765625 -0.625 C 18.222656 0.0625 16.484375 0.414062 14.546875 0.4375 L 14.546875 -1.46875 C 15.921875 -1.46875 17.273438 -1.742188 18.609375 -2.296875 C 19.941406 -2.847656 20.988281 -3.585938 21.75 -4.515625 L 21.75 -9.84375 L 23.765625 -9.84375 Z M 23.765625 -3.5625 "/></g></g></g><g fill="#000000" fill-opacity="1"><g transform="translate(363.939876, 371.975754)"><g><path d="M 2.96875 0 L 0.546875 0 L 10.578125 -24.5 L 12.78125 -24.5 Z M 23.21875 0 L 20.796875 0 L 12.421875 -21.015625 L 13.5625 -23.953125 Z M 16.34375 -8.59375 L 17.15625 -6.578125 L 6.65625 -6.578125 L 7.421875 -8.59375 Z M 16.34375 -8.59375 "/></g></g></g><g fill="#000000" fill-opacity="1"><g transform="translate(387.704247, 371.975754)"><g><path d="M 5.109375 0 L 3.015625 0 L 3.015625 -24.5 L 5.109375 -24.5 Z M 17.40625 -17.34375 C 17.40625 -18.882812 16.910156 -20.144531 15.921875 -21.125 C 14.929688 -22.101562 13.613281 -22.59375 11.96875 -22.59375 L 6.03125 -22.59375 L 6.03125 -24.5 L 12.15625 -24.5 C 13.582031 -24.5 14.847656 -24.210938 15.953125 -23.640625 C 17.066406 -23.066406 17.953125 -22.242188 18.609375 -21.171875 C 19.273438 -20.109375 19.609375 -18.832031 19.609375 -17.34375 C 19.609375 -15.84375 19.273438 -14.5625 18.609375 -13.5 C 17.953125 -12.4375 17.066406 -11.613281 15.953125 -11.03125 C 14.847656 -10.457031 13.582031 -10.171875 12.15625 -10.171875 L 6.03125 -10.171875 L 6.03125 -12.078125 L 11.96875 -12.078125 C 13.613281 -12.078125 14.929688 -12.566406 15.921875 -13.546875 C 16.910156 -14.535156 17.40625 -15.800781 17.40625 -17.34375 Z M 10.984375 -9.375 L 13.484375 -9.375 L 19.90625 0 L 17.1875 0 Z M 10.984375 -9.375 "/></g></g></g><g fill="#000000" fill-opacity="1"><g transform="translate(409.521898, 371.975754)"><g><path d="M 2.96875 0 L 0.546875 0 L 10.578125 -24.5 L 12.78125 -24.5 Z M 23.21875 0 L 20.796875 0 L 12.421875 -21.015625 L 13.5625 -23.953125 Z M 16.34375 -8.59375 L 17.15625 -6.578125 L 6.65625 -6.578125 L 7.421875 -8.59375 Z M 16.34375 -8.59375 "/></g></g></g><g fill="#000000" fill-opacity="1"><g transform="translate(433.286268, 371.975754)"><g><path d="M 5.296875 -24.5 L 22.84375 0 L 19.953125 0 L 2.640625 -24.5 Z M 20.609375 -24.5 L 22.703125 -24.5 L 22.703125 -1.875 L 20.609375 -4.671875 Z M 4.921875 0 L 2.828125 0 L 2.828125 -22.40625 L 4.921875 -19.390625 Z M 4.921875 0 "/></g></g></g><g fill="#000000" fill-opacity="1"><g transform="translate(458.960571, 371.975754)"><g><path d="M 21.703125 -19.4375 C 20.953125 -20.507812 19.9375 -21.363281 18.65625 -22 C 17.382812 -22.632812 16.023438 -22.96875 14.578125 -23 L 14.578125 -24.90625 C 16.515625 -24.882812 18.222656 -24.476562 19.703125 -23.6875 C 21.191406 -22.90625 22.445312 -21.867188 23.46875 -20.578125 Z M 4.328125 -12.234375 C 4.328125 -10.242188 4.738281 -8.46875 5.5625 -6.90625 C 6.382812 -5.34375 7.5 -4.085938 8.90625 -3.140625 C 10.3125 -2.191406 11.898438 -1.644531 13.671875 -1.5 L 13.671875 0.40625 C 11.484375 0.257812 9.519531 -0.351562 7.78125 -1.4375 C 6.039062 -2.53125 4.660156 -4 3.640625 -5.84375 C 2.628906 -7.695312 2.125 -9.828125 2.125 -12.234375 C 2.125 -14.628906 2.628906 -16.75 3.640625 -18.59375 C 4.660156 -20.445312 6.039062 -21.921875 7.78125 -23.015625 C 9.519531 -24.109375 11.484375 -24.726562 13.671875 -24.875 L 13.671875 -22.953125 C 11.898438 -22.804688 10.3125 -22.269531 8.90625 -21.34375 C 7.5 -20.414062 6.382812 -19.171875 5.5625 -17.609375 C 4.738281 -16.054688 4.328125 -14.265625 4.328125 -12.234375 Z M 23.515625 -3.9375 C 22.410156 -2.582031 21.128906 -1.519531 19.671875 -0.75 C 18.210938 0.0195312 16.515625 0.414062 14.578125 0.4375 L 14.578125 -1.46875 C 16.023438 -1.46875 17.382812 -1.796875 18.65625 -2.453125 C 19.9375 -3.117188 20.953125 -3.976562 21.703125 -5.03125 Z M 23.515625 -3.9375 "/></g></g></g><g fill="#000000" fill-opacity="1"><g transform="translate(483.606448, 371.975754)"><g><path d="M 3.046875 -24.5 L 5.140625 -24.5 L 5.140625 0 L 3.046875 0 Z M 3.046875 -24.5 "/></g></g></g><g fill="#000000" fill-opacity="1"><g transform="translate(491.797254, 371.975754)"><g><path d="M 2.96875 0 L 0.546875 0 L 10.578125 -24.5 L 12.78125 -24.5 Z M 23.21875 0 L 20.796875 0 L 12.421875 -21.015625 L 13.5625 -23.953125 Z M 16.34375 -8.59375 L 17.15625 -6.578125 L 6.65625 -6.578125 L 7.421875 -8.59375 Z M 16.34375 -8.59375 "/></g></g></g></svg>